<!-- Generated by IcoMoon.io -->
<svg version="1.1" xmlns="http://www.w3.org/2000/svg" width="1024" height="1024" viewBox="0 0 1024 1024">
<title></title>
<g id="icomoon-ignore">
</g>
<path fill="#000" d="M256 409.333c34.125-136.88 119.475-205.333 256-205.333 204.8 0 230.4 154 332.8 179.667 68.275 17.12 128-8.547 179.2-77-34.125 136.88-119.475 205.333-256 205.333-204.8 0-230.4-154-332.8-179.667-68.275-17.12-128 8.547-179.2 77zM0 717.333c34.125-136.88 119.475-205.333 256-205.333 204.8 0 230.4 154 332.8 179.667 68.275 17.12 128-8.547 179.2-77-34.125 136.88-119.475 205.333-256 205.333-204.8 0-230.4-154-332.8-179.667-68.275-17.12-128 8.547-179.2 77z"></path>
</svg>
