<!-- Generated by IcoMoon.io -->
<svg version="1.1" xmlns="http://www.w3.org/2000/svg" width="939" height="1024" viewBox="0 0 939 1024">
<title></title>
<g id="icomoon-ignore">
</g>
<path fill="#000" d="M902.268 789.333l-414.464 234.667v-182.869l258.048-142.251zM930.684 763.947v-491.52l-151.381 88.363v314.923l151.381 87.381zM36.732 789.333l414.464 234.667v-182.869l-258.048-142.251zM8.316 763.947v-491.52l151.381 88.363v314.923zM25.596 240.768l425.643-240.768v176.768l-274.304 151.381zM913.447 240.768l-425.643-240.768v176.768l274.261 151.381zM451.239 799.488l-254.805-140.245v-278.357l254.976 147.285zM487.804 799.488l254.976-140.203v-278.357l-254.976 147.285zM213.5 349.44l256-141.227 256 141.227-256 147.328z"></path>
</svg>
